<svg fill="none" height="48" viewBox="0 0 48 48" width="48" xmlns="http://www.w3.org/2000/svg"><g fill="#000"><path d="m48 12.57h-2.295v11.43h2.295z"/><path d="m45.705 24h-2.28v4.575h2.28z"/><path d="m45.705 10.29h-2.28v2.28h2.28z"/><path d="m43.425 28.575h-2.28v2.28h2.28z"/><path d="m43.425 14.85h-2.28v4.575h2.28z"/><path d="m43.425 7.995h-2.28v2.295h2.28z"/><path d="m41.145 12.57h-2.295v2.28h2.295z"/><path d="m41.145 30.855h-4.575v2.28h4.575z"/><path d="m38.85 10.29h-4.575v2.28h4.575z"/><path d="m36.57 33.135h-4.575v2.295h4.575z"/><path d="m41.145 5.715h-11.43v2.28h11.43z"/><path d="m31.995 35.43h-4.575v2.28h4.575z"/><path d="m29.715 7.995h-2.295v2.295h2.295z"/><path d="m27.42 37.71h-2.28v2.28h2.28z"/><path d="m27.42 10.29h-2.28v2.28h2.28z"/><path d="m25.14 39.99h-2.28v2.295h2.28z"/><path d="m25.14 12.57h-2.28v2.28h2.28z"/><path d="m22.86 37.71h-2.295v2.28h2.295z"/><path d="m22.86 10.29h-2.295v2.28h2.295z"/><path d="m20.565 35.43h-4.575v2.28h4.575z"/><path d="m20.565 7.995h-2.28v2.295h2.28z"/><path d="m15.99 33.135h-4.56v2.295h4.56z"/><path d="m11.43 30.855h-4.57499v2.28h4.57499z"/><path d="m18.285 5.715h-11.42999v2.28h11.42999z"/><path d="m6.85501 28.575h-2.28v2.28h2.28z"/><path d="m6.85501 7.995h-2.28v2.295h2.28z"/><path d="m4.575 24h-2.295v4.575h2.295z"/><path d="m4.575 10.29h-2.295v2.28h2.295z"/><path d="m2.28 12.57h-2.28v11.43h2.28z"/></g></svg> 